<?xml version="1.0" encoding="UTF-8"?>
<!DOCTYPE score-partwise PUBLIC "-//Recordare//DTD MusicXML 3.1 Partwise//EN" "http://www.musicxml.org/dtds/partwise.dtd">
<score-partwise version="3.1">
  <work>
    <work-title>test_multirest_with_key_signatures_1329_no_crowded_notes</work-title>
    </work>
  <identification>
    <creator type="composer">Ludwig van Beethoven</creator>
    <rights>OpenScore (CC0)</rights>
    <encoding>
      <software>MuseScore 3.6.2</software>
      <encoding-date>2023-02-13</encoding-date>
      <supports element="accidental" type="yes"/>
      <supports element="beam" type="yes"/>
      <supports element="print" attribute="new-page" type="no"/>
      <supports element="print" attribute="new-system" type="no"/>
      <supports element="stem" type="yes"/>
      </encoding>
    </identification>
  <defaults>
    <scaling>
      <millimeters>6.99912</millimeters>
      <tenths>40</tenths>
      </scaling>
    <page-layout>
      <page-height>1596.77</page-height>
      <page-width>1233.87</page-width>
      <page-margins type="even">
        <left-margin>85.725</left-margin>
        <right-margin>85.725</right-margin>
        <top-margin>85.725</top-margin>
        <bottom-margin>85.725</bottom-margin>
        </page-margins>
      <page-margins type="odd">
        <left-margin>85.725</left-margin>
        <right-margin>85.725</right-margin>
        <top-margin>85.725</top-margin>
        <bottom-margin>85.725</bottom-margin>
        </page-margins>
      </page-layout>
    <word-font font-family="FreeSerif" font-size="10"/>
    <lyric-font font-family="FreeSerif" font-size="11"/>
    </defaults>
  <credit page="1">
    <credit-type>rights</credit-type>
    <credit-words default-x="616.935" default-y="85.725" justify="center" valign="bottom" font-size="8">OpenScore (CC0)</credit-words>
    </credit>
  <part-list>
    <part-group type="start" number="1">
      <group-symbol>square</group-symbol>
      </part-group>
    <part-group type="start" number="2">
      <group-symbol>line</group-symbol>
      </part-group>
    <score-part id="P1">
      <part-name>Clarinetto 1 in C</part-name>
      <part-abbreviation>Cl. 1
in C</part-abbreviation>
      <score-instrument id="P1-I1">
        <instrument-name>C Clarinet</instrument-name>
        </score-instrument>
      <midi-device id="P1-I1" port="1"></midi-device>
      <midi-instrument id="P1-I1">
        <midi-channel>1</midi-channel>
        <midi-program>72</midi-program>
        <volume>78.7402</volume>
        <pan>0</pan>
        </midi-instrument>
      </score-part>
    </part-list>
  <part id="P1">
    <measure number="1" width="173.06">
      <print>
        <system-layout>
          <system-margins>
            <left-margin>0.00</left-margin>
            <right-margin>0.00</right-margin>
            </system-margins>
          <top-system-distance>70.00</top-system-distance>
          </system-layout>
        </print>
      <attributes>
        <divisions>2</divisions>
        <key>
          <fifths>-1</fifths>
          </key>
        <time>
          <beats>3</beats>
          <beat-type>4</beat-type>
          </time>
        <clef>
          <sign>G</sign>
          <line>2</line>
          </clef>
        </attributes>
      <direction>
        <direction-type>
          <words default-y="7.17" relative-y="20.00" font-weight="bold" font-size="12">stringendo il tempo</words>
          </direction-type>
        </direction>
      <direction placement="below">
        <direction-type>
          <words font-family="FreeSerif" font-size="12" font-style="italic" default-y="-80.00">cresc.</words>
          </direction-type>
        <direction-type>
          <dashes type="start" number="1" default-y="-80.00"/>
          </direction-type>
        </direction>
      <note default-x="98.26" default-y="10.00">
        <pitch>
          <step>A</step>
          <octave>5</octave>
          </pitch>
        <duration>3</duration>
        <voice>1</voice>
        <type>quarter</type>
        <dot/>
        <stem>down</stem>
        </note>
      <note default-x="123.02" default-y="-25.00">
        <pitch>
          <step>A</step>
          <octave>4</octave>
          </pitch>
        <duration>1</duration>
        <voice>1</voice>
        <type>eighth</type>
        <stem>up</stem>
        </note>
      <note default-x="148.30" default-y="-25.00">
        <pitch>
          <step>A</step>
          <octave>4</octave>
          </pitch>
        <duration>2</duration>
        <voice>1</voice>
        <type>quarter</type>
        <stem>up</stem>
        </note>
      </measure>
    <measure number="2" width="67.16">
      <note default-x="10.00" default-y="-10.00">
        <pitch>
          <step>D</step>
          <octave>5</octave>
          </pitch>
        <duration>2</duration>
        <voice>1</voice>
        <type>quarter</type>
        <stem>down</stem>
        <notations>
          <articulations>
            <staccato/>
            </articulations>
          </notations>
        </note>
      <note default-x="26.20" default-y="-5.00">
        <pitch>
          <step>E</step>
          <octave>5</octave>
          </pitch>
        <duration>2</duration>
        <voice>1</voice>
        <type>quarter</type>
        <stem>down</stem>
        <notations>
          <articulations>
            <staccato/>
            </articulations>
          </notations>
        </note>
      <note default-x="42.40" default-y="0.00">
        <pitch>
          <step>F</step>
          <octave>5</octave>
          </pitch>
        <duration>2</duration>
        <voice>1</voice>
        <type>quarter</type>
        <stem>down</stem>
        <notations>
          <articulations>
            <staccato/>
            </articulations>
          </notations>
        </note>
      </measure>
    <measure number="3" width="88.60">
      <note default-x="13.80" default-y="10.00">
        <pitch>
          <step>A</step>
          <octave>5</octave>
          </pitch>
        <duration>3</duration>
        <voice>1</voice>
        <type>quarter</type>
        <dot/>
        <stem>down</stem>
        </note>
      <note default-x="38.56" default-y="-25.00">
        <pitch>
          <step>A</step>
          <octave>4</octave>
          </pitch>
        <duration>1</duration>
        <voice>1</voice>
        <type>eighth</type>
        <stem>up</stem>
        </note>
      <note default-x="63.84" default-y="-25.00">
        <pitch>
          <step>A</step>
          <octave>4</octave>
          </pitch>
        <duration>2</duration>
        <voice>1</voice>
        <type>quarter</type>
        <stem>up</stem>
        </note>
      </measure>
    <measure number="4" width="67.16">
      <note default-x="10.00" default-y="-10.00">
        <pitch>
          <step>D</step>
          <octave>5</octave>
          </pitch>
        <duration>2</duration>
        <voice>1</voice>
        <type>quarter</type>
        <stem>down</stem>
        <notations>
          <articulations>
            <staccato/>
            </articulations>
          </notations>
        </note>
      <note default-x="26.20" default-y="-5.00">
        <pitch>
          <step>E</step>
          <octave>5</octave>
          </pitch>
        <duration>2</duration>
        <voice>1</voice>
        <type>quarter</type>
        <stem>down</stem>
        <notations>
          <articulations>
            <staccato/>
            </articulations>
          </notations>
        </note>
      <note default-x="42.40" default-y="0.00">
        <pitch>
          <step>F</step>
          <octave>5</octave>
          </pitch>
        <duration>2</duration>
        <voice>1</voice>
        <type>quarter</type>
        <stem>down</stem>
        <notations>
          <articulations>
            <staccato/>
            </articulations>
          </notations>
        </note>
      </measure>
    <measure number="5" width="88.60">
      <note default-x="13.80" default-y="10.00">
        <pitch>
          <step>A</step>
          <octave>5</octave>
          </pitch>
        <duration>3</duration>
        <voice>1</voice>
        <type>quarter</type>
        <dot/>
        <stem>down</stem>
        </note>
      <note default-x="38.56" default-y="-25.00">
        <pitch>
          <step>A</step>
          <octave>4</octave>
          </pitch>
        <duration>1</duration>
        <voice>1</voice>
        <type>eighth</type>
        <stem>up</stem>
        </note>
      <note default-x="63.84" default-y="-25.00">
        <pitch>
          <step>A</step>
          <octave>4</octave>
          </pitch>
        <duration>2</duration>
        <voice>1</voice>
        <type>quarter</type>
        <stem>up</stem>
        </note>
      </measure>
    <measure number="6" width="67.16">
      <note default-x="10.00" default-y="-10.00">
        <pitch>
          <step>D</step>
          <octave>5</octave>
          </pitch>
        <duration>2</duration>
        <voice>1</voice>
        <type>quarter</type>
        <stem>down</stem>
        <notations>
          <articulations>
            <staccato/>
            </articulations>
          </notations>
        </note>
      <note default-x="26.20" default-y="-5.00">
        <pitch>
          <step>E</step>
          <octave>5</octave>
          </pitch>
        <duration>2</duration>
        <voice>1</voice>
        <type>quarter</type>
        <stem>down</stem>
        <notations>
          <articulations>
            <staccato/>
            </articulations>
          </notations>
        </note>
      <note default-x="42.40" default-y="0.00">
        <pitch>
          <step>F</step>
          <octave>5</octave>
          </pitch>
        <duration>2</duration>
        <voice>1</voice>
        <type>quarter</type>
        <stem>down</stem>
        <notations>
          <articulations>
            <staccato/>
            </articulations>
          </notations>
        </note>
      </measure>
    <measure number="7" width="88.60">
      <note default-x="13.80" default-y="10.00">
        <pitch>
          <step>A</step>
          <octave>5</octave>
          </pitch>
        <duration>3</duration>
        <voice>1</voice>
        <type>quarter</type>
        <dot/>
        <stem>down</stem>
        </note>
      <note default-x="38.56" default-y="-25.00">
        <pitch>
          <step>A</step>
          <octave>4</octave>
          </pitch>
        <duration>1</duration>
        <voice>1</voice>
        <type>eighth</type>
        <stem>up</stem>
        </note>
      <note default-x="63.84" default-y="-25.00">
        <pitch>
          <step>A</step>
          <octave>4</octave>
          </pitch>
        <duration>2</duration>
        <voice>1</voice>
        <type>quarter</type>
        <stem>up</stem>
        </note>
      </measure>
    <measure number="8" width="72.76">
      <note default-x="10.00" default-y="-10.00">
        <pitch>
          <step>D</step>
          <octave>5</octave>
          </pitch>
        <duration>2</duration>
        <voice>1</voice>
        <type>quarter</type>
        <stem>down</stem>
        <notations>
          <articulations>
            <staccato/>
            </articulations>
          </notations>
        </note>
      <note default-x="26.20" default-y="-5.00">
        <pitch>
          <step>E</step>
          <octave>5</octave>
          </pitch>
        <duration>2</duration>
        <voice>1</voice>
        <type>quarter</type>
        <stem>down</stem>
        <notations>
          <articulations>
            <staccato/>
            </articulations>
          </notations>
        </note>
      <note default-x="42.40" default-y="0.00">
        <pitch>
          <step>F</step>
          <octave>5</octave>
          </pitch>
        <duration>2</duration>
        <voice>1</voice>
        <type>quarter</type>
        <stem>down</stem>
        <notations>
          <articulations>
            <staccato/>
            </articulations>
          </notations>
        </note>
      <direction placement="below">
        <direction-type>
          <dashes type="stop" number="1"/>
          </direction-type>
        </direction>
      <barline location="right">
        <bar-style>light-light</bar-style>
        </barline>
      </measure>
    <measure number="9" width="105.49">
      <attributes>
        <time symbol="cut">
          <beats>2</beats>
          <beat-type>2</beat-type>
          </time>
        </attributes>
      <direction placement="below">
        <direction-type>
          <dynamics default-x="3.29" default-y="-50.00" relative-y="-30.00">
            <ff/>
            </dynamics>
          </direction-type>
        <sound dynamics="124.44"/>
        </direction>
      <note default-x="32.31" default-y="10.00">
        <pitch>
          <step>A</step>
          <octave>5</octave>
          </pitch>
        <duration>2</duration>
        <voice>1</voice>
        <type>quarter</type>
        <stem>down</stem>
        </note>
      <note default-x="48.45" default-y="-25.00">
        <pitch>
          <step>A</step>
          <octave>4</octave>
          </pitch>
        <duration>2</duration>
        <voice>1</voice>
        <type>quarter</type>
        <stem>up</stem>
        </note>
      <direction placement="below">
        <direction-type>
          <dynamics default-x="3.29" default-y="-40.00" relative-y="-30.00">
            <f/>
            </dynamics>
          </direction-type>
        <sound dynamics="106.67"/>
        </direction>
      <note default-x="64.58" default-y="-10.00">
        <pitch>
          <step>D</step>
          <octave>5</octave>
          </pitch>
        <duration>2</duration>
        <voice>1</voice>
        <type>quarter</type>
        <stem>down</stem>
        </note>
      <note default-x="80.72" default-y="-45.00">
        <pitch>
          <step>D</step>
          <octave>4</octave>
          </pitch>
        <duration>2</duration>
        <voice>1</voice>
        <type>quarter</type>
        <stem>up</stem>
        </note>
      </measure>
    <measure number="10" width="88.78">
      <direction placement="below">
        <direction-type>
          <dynamics default-x="6.58" default-y="-59.55" relative-y="-30.00">
            <f/>
            </dynamics>
          </direction-type>
        <sound dynamics="106.67"/>
        </direction>
      <note default-x="10.00" default-y="-25.00">
        <pitch>
          <step>A</step>
          <octave>4</octave>
          </pitch>
        <duration>2</duration>
        <voice>1</voice>
        <type>quarter</type>
        <stem>up</stem>
        </note>
      <note default-x="26.14" default-y="-60.00">
        <pitch>
          <step>A</step>
          <octave>3</octave>
          </pitch>
        <duration>2</duration>
        <voice>1</voice>
        <type>quarter</type>
        <stem>up</stem>
        </note>
      <direction placement="below">
        <direction-type>
          <dynamics default-x="3.29" default-y="-59.55" relative-y="-30.00">
            <f/>
            </dynamics>
          </direction-type>
        <sound dynamics="106.67"/>
        </direction>
      <note default-x="42.28" default-y="10.00">
        <pitch>
          <step>A</step>
          <octave>5</octave>
          </pitch>
        <duration>2</duration>
        <voice>1</voice>
        <type>quarter</type>
        <stem>down</stem>
        </note>
      <note default-x="58.42" default-y="-25.00">
        <pitch>
          <step>A</step>
          <octave>4</octave>
          </pitch>
        <duration>2</duration>
        <voice>1</voice>
        <type>quarter</type>
        <stem>up</stem>
        </note>
      <barline location="right">
        <bar-style>light-light</bar-style>
        </barline>
      </measure>
    <measure number="11" width="67.66">
      <attributes>
        <key>
          <fifths>2</fifths>
          </key>
        </attributes>
      <direction placement="below">
        <direction-type>
          <dynamics default-x="6.58" default-y="-40.00" relative-y="-30.00">
            <f/>
            </dynamics>
          </direction-type>
        <sound dynamics="106.67"/>
        </direction>
      <direction placement="below">
        <direction-type>
          <dynamics default-x="6.58" default-y="-40.00" relative-y="-30.00">
            <fp/>
            </dynamics>
          </direction-type>
        <sound dynamics="106.67"/>
        </direction>
      <note default-x="34.83" default-y="-10.00">
        <pitch>
          <step>D</step>
          <octave>5</octave>
          </pitch>
        <duration>8</duration>
        <tie type="start"/>
        <voice>1</voice>
        <type>whole</type>
        <notations>
          <tied type="start"/>
          </notations>
        </note>
      </measure>
    <measure number="12" width="53.66">
      <note default-x="10.36" default-y="-10.00">
        <pitch>
          <step>D</step>
          <octave>5</octave>
          </pitch>
        <duration>4</duration>
        <tie type="stop"/>
        <voice>1</voice>
        <type>half</type>
        <stem>down</stem>
        <notations>
          <tied type="stop"/>
          </notations>
        </note>
      <direction placement="below">
        <direction-type>
          <dynamics default-x="3.29" default-y="-40.00" relative-y="-30.00">
            <p/>
            </dynamics>
          </direction-type>
        <sound dynamics="54.44"/>
        </direction>
      <note default-x="28.17" default-y="-5.00">
        <pitch>
          <step>E</step>
          <octave>5</octave>
          </pitch>
        <duration>4</duration>
        <voice>1</voice>
        <type>half</type>
        <stem>down</stem>
        </note>
      </measure>
    <measure number="13" width="191.31">
      <note default-x="88.04" default-y="0.00">
        <pitch>
          <step>F</step>
          <alter>1</alter>
          <octave>5</octave>
          </pitch>
        <duration>6</duration>
        <voice>1</voice>
        <type>half</type>
        <dot/>
        <stem>down</stem>
        <notations>
          <slur type="start" placement="above" number="1"/>
          </notations>
        </note>
      <note default-x="144.54" default-y="5.00">
        <pitch>
          <step>G</step>
          <octave>5</octave>
          </pitch>
        <duration>1</duration>
        <voice>1</voice>
        <type>eighth</type>
        <stem>down</stem>
        <beam number="1">begin</beam>
        </note>
      <note default-x="166.54" default-y="10.00">
        <pitch>
          <step>A</step>
          <octave>5</octave>
          </pitch>
        <duration>1</duration>
        <voice>1</voice>
        <type>eighth</type>
        <stem>down</stem>
        <beam number="1">end</beam>
        <notations>
          <slur type="stop" number="1"/>
          </notations>
        </note>
      </measure>
    <measure number="14" width="116.38">
      <note default-x="10.00" default-y="5.00">
        <pitch>
          <step>G</step>
          <octave>5</octave>
          </pitch>
        <duration>2</duration>
        <voice>1</voice>
        <type>quarter</type>
        <stem>down</stem>
        <notations>
          <articulations>
            <staccato/>
            </articulations>
          </notations>
        </note>
      <note default-x="36.20" default-y="5.00">
        <pitch>
          <step>G</step>
          <octave>5</octave>
          </pitch>
        <duration>2</duration>
        <voice>1</voice>
        <type>quarter</type>
        <stem>down</stem>
        <notations>
          <articulations>
            <staccato/>
            </articulations>
          </notations>
        </note>
      <note default-x="62.39" default-y="0.00">
        <pitch>
          <step>F</step>
          <alter>1</alter>
          <octave>5</octave>
          </pitch>
        <duration>2</duration>
        <voice>1</voice>
        <type>quarter</type>
        <stem>down</stem>
        <notations>
          <articulations>
            <staccato/>
            </articulations>
          </notations>
        </note>
      <note default-x="88.59" default-y="0.00">
        <pitch>
          <step>F</step>
          <alter>1</alter>
          <octave>5</octave>
          </pitch>
        <duration>2</duration>
        <voice>1</voice>
        <type>quarter</type>
        <stem>down</stem>
        <notations>
          <articulations>
            <staccato/>
            </articulations>
          </notations>
        </note>
      </measure>
    <measure number="15" width="86.85">
      <note default-x="10.36" default-y="-5.00">
        <pitch>
          <step>E</step>
          <octave>5</octave>
          </pitch>
        <duration>4</duration>
        <voice>1</voice>
        <type>half</type>
        <stem>down</stem>
        </note>
      <note default-x="47.63" default-y="-10.00">
        <pitch>
          <step>D</step>
          <octave>5</octave>
          </pitch>
        <duration>4</duration>
        <tie type="start"/>
        <voice>1</voice>
        <type>half</type>
        <stem>down</stem>
        <notations>
          <tied type="start"/>
          </notations>
        </note>
      </measure>
    <measure number="16" width="86.85">
      <note default-x="10.36" default-y="-10.00">
        <pitch>
          <step>D</step>
          <octave>5</octave>
          </pitch>
        <duration>4</duration>
        <tie type="stop"/>
        <voice>1</voice>
        <type>half</type>
        <stem>down</stem>
        <notations>
          <tied type="stop"/>
          </notations>
        </note>
      <note default-x="47.63" default-y="-5.00">
        <pitch>
          <step>E</step>
          <octave>5</octave>
          </pitch>
        <duration>4</duration>
        <voice>1</voice>
        <type>half</type>
        <stem>down</stem>
        </note>
      </measure>
    <measure number="17" width="113.63">
      <note default-x="10.36" default-y="0.00">
        <pitch>
          <step>F</step>
          <alter>1</alter>
          <octave>5</octave>
          </pitch>
        <duration>6</duration>
        <voice>1</voice>
        <type>half</type>
        <dot/>
        <stem>down</stem>
        <notations>
          <slur type="start" placement="above" number="1"/>
          </notations>
        </note>
      <note default-x="66.86" default-y="5.00">
        <pitch>
          <step>G</step>
          <octave>5</octave>
          </pitch>
        <duration>1</duration>
        <voice>1</voice>
        <type>eighth</type>
        <stem>down</stem>
        <beam number="1">begin</beam>
        </note>
      <note default-x="88.86" default-y="10.00">
        <pitch>
          <step>A</step>
          <octave>5</octave>
          </pitch>
        <duration>1</duration>
        <voice>1</voice>
        <type>eighth</type>
        <stem>down</stem>
        <beam number="1">end</beam>
        <notations>
          <slur type="stop" number="1"/>
          </notations>
        </note>
      </measure>
    <measure number="18" width="84.62">
      <direction>
        <direction-type>
          <words relative-y="20.00">G.P.</words>
          </direction-type>
        </direction>
      <note>
        <rest measure="yes"/>
        <duration>8</duration>
        <voice>1</voice>
        </note>
      </measure>
    <measure number="19" width="120.18">
      <direction placement="below">
        <direction-type>
          <dynamics default-x="3.29" default-y="-40.00" relative-y="-30.00">
            <ff/>
            </dynamics>
          </direction-type>
        <sound dynamics="124.44"/>
        </direction>
      <note default-x="13.80" default-y="10.00">
        <pitch>
          <step>A</step>
          <octave>5</octave>
          </pitch>
        <duration>2</duration>
        <voice>1</voice>
        <type>quarter</type>
        <stem>down</stem>
        </note>
      <note default-x="40.00" default-y="-25.00">
        <pitch>
          <step>A</step>
          <octave>4</octave>
          </pitch>
        <duration>2</duration>
        <voice>1</voice>
        <type>quarter</type>
        <stem>up</stem>
        </note>
      <direction placement="below">
        <direction-type>
          <dynamics default-x="3.29" default-y="-40.00" relative-y="-30.00">
            <f/>
            </dynamics>
          </direction-type>
        <sound dynamics="106.67"/>
        </direction>
      <note default-x="66.19" default-y="-10.00">
        <pitch>
          <step>D</step>
          <octave>5</octave>
          </pitch>
        <duration>2</duration>
        <voice>1</voice>
        <type>quarter</type>
        <stem>down</stem>
        </note>
      <note default-x="92.39" default-y="-45.00">
        <pitch>
          <step>D</step>
          <octave>4</octave>
          </pitch>
        <duration>2</duration>
        <voice>1</voice>
        <type>quarter</type>
        <stem>up</stem>
        </note>
      </measure>
    <measure number="20" width="116.38">
      <direction placement="below">
        <direction-type>
          <dynamics default-x="6.58" default-y="-40.00" relative-y="-30.00">
            <f/>
            </dynamics>
          </direction-type>
        <sound dynamics="106.67"/>
        </direction>
      <note default-x="10.00" default-y="-25.00">
        <pitch>
          <step>A</step>
          <octave>4</octave>
          </pitch>
        <duration>2</duration>
        <voice>1</voice>
        <type>quarter</type>
        <stem>up</stem>
        </note>
      <note default-x="36.20" default-y="-60.00">
        <pitch>
          <step>A</step>
          <octave>3</octave>
          </pitch>
        <duration>2</duration>
        <voice>1</voice>
        <type>quarter</type>
        <stem>up</stem>
        </note>
      <direction placement="below">
        <direction-type>
          <dynamics default-x="3.29" default-y="-40.00" relative-y="-30.00">
            <f/>
            </dynamics>
          </direction-type>
        <sound dynamics="106.67"/>
        </direction>
      <note default-x="62.39" default-y="10.00">
        <pitch>
          <step>A</step>
          <octave>5</octave>
          </pitch>
        <duration>2</duration>
        <voice>1</voice>
        <type>quarter</type>
        <stem>down</stem>
        </note>
      <note default-x="88.59" default-y="-25.00">
        <pitch>
          <step>A</step>
          <octave>4</octave>
          </pitch>
        <duration>2</duration>
        <voice>1</voice>
        <type>quarter</type>
        <stem>up</stem>
        </note>
      </measure>
    <measure number="21" width="112.49">
      <note default-x="10.00" default-y="-45.00">
        <pitch>
          <step>D</step>
          <octave>4</octave>
          </pitch>
        <duration>2</duration>
        <voice>1</voice>
        <type>quarter</type>
        <stem>up</stem>
        </note>
      <note>
        <rest/>
        <duration>2</duration>
        <voice>1</voice>
        <type>quarter</type>
        </note>
      <note>
        <rest/>
        <duration>4</duration>
        <voice>1</voice>
        <type>half</type>
        <notations>
          <fermata type="upright" relative-y="10.00"/>
          </notations>
        </note>
      <barline location="right">
        <bar-style>light-heavy</bar-style>
        </barline>
      </measure>
    <measure number="1" width="0.00">
      <attributes>
        <divisions>2</divisions>
        <key>
          <fifths>-2</fifths>
          </key>
        <time symbol="common">
          <beats>4</beats>
          <beat-type>4</beat-type>
          </time>
        <measure-style>
          <multiple-rest>24</multiple-rest>
          </measure-style>
        </attributes>
      <note>
        <rest measure="yes"/>
        <duration>8</duration>
        <voice>1</voice>
        </note>
      </measure>
    <measure number="2" width="0.00">
      <note>
        <rest measure="yes"/>
        <duration>8</duration>
        <voice>1</voice>
        </note>
      </measure>
    <measure number="3" width="0.00">
      <note>
        <rest measure="yes"/>
        <duration>8</duration>
        <voice>1</voice>
        </note>
      </measure>
    <measure number="4" width="0.00">
      <note>
        <rest measure="yes"/>
        <duration>8</duration>
        <voice>1</voice>
        </note>
      </measure>
    <measure number="5" width="0.00">
      <note>
        <rest measure="yes"/>
        <duration>8</duration>
        <voice>1</voice>
        </note>
      </measure>
    <measure number="6" width="0.00">
      <note>
        <rest measure="yes"/>
        <duration>8</duration>
        <voice>1</voice>
        </note>
      </measure>
    <measure number="7" width="0.00">
      <note>
        <rest measure="yes"/>
        <duration>8</duration>
        <voice>1</voice>
        </note>
      </measure>
    <measure number="8" width="0.00">
      <note>
        <rest measure="yes"/>
        <duration>8</duration>
        <voice>1</voice>
        </note>
      </measure>
    <measure number="9" width="0.00">
      <note>
        <rest measure="yes"/>
        <duration>8</duration>
        <voice>1</voice>
        </note>
      </measure>
    <measure number="10" width="0.00">
      <note>
        <rest measure="yes"/>
        <duration>8</duration>
        <voice>1</voice>
        </note>
      </measure>
    <measure number="11" width="0.00">
      <note>
        <rest measure="yes"/>
        <duration>8</duration>
        <voice>1</voice>
        </note>
      </measure>
    <measure number="12" width="0.00">
      <note>
        <rest measure="yes"/>
        <duration>8</duration>
        <voice>1</voice>
        </note>
      </measure>
    <measure number="13" width="0.00">
      <note>
        <rest measure="yes"/>
        <duration>8</duration>
        <voice>1</voice>
        </note>
      </measure>
    <measure number="14" width="0.00">
      <note>
        <rest measure="yes"/>
        <duration>8</duration>
        <voice>1</voice>
        </note>
      </measure>
    <measure number="15" width="0.00">
      <note>
        <rest measure="yes"/>
        <duration>8</duration>
        <voice>1</voice>
        </note>
      </measure>
    <measure number="16" width="0.00">
      <note>
        <rest measure="yes"/>
        <duration>8</duration>
        <voice>1</voice>
        </note>
      </measure>
    <measure number="17" width="0.00">
      <note>
        <rest measure="yes"/>
        <duration>8</duration>
        <voice>1</voice>
        </note>
      </measure>
    <measure number="18" width="0.00">
      <note>
        <rest measure="yes"/>
        <duration>8</duration>
        <voice>1</voice>
        </note>
      </measure>
    <measure number="19" width="0.00">
      <note>
        <rest measure="yes"/>
        <duration>8</duration>
        <voice>1</voice>
        </note>
      </measure>
    <measure number="20" width="0.00">
      <note>
        <rest measure="yes"/>
        <duration>8</duration>
        <voice>1</voice>
        </note>
      </measure>
    <measure number="21" width="0.00">
      <note>
        <rest measure="yes"/>
        <duration>8</duration>
        <voice>1</voice>
        </note>
      </measure>
    <measure number="22" width="0.00">
      <note>
        <rest measure="yes"/>
        <duration>8</duration>
        <voice>1</voice>
        </note>
      </measure>
    <measure number="23" width="0.00">
      <note>
        <rest measure="yes"/>
        <duration>8</duration>
        <voice>1</voice>
        </note>
      </measure>
    <measure number="24" width="0.00">
      <note>
        <rest measure="yes"/>
        <duration>8</duration>
        <voice>1</voice>
        </note>
      <barline location="right">
        <bar-style>light-light</bar-style>
        </barline>
      </measure>
    <measure number="25" width="0.00">
      <attributes>
        <key>
          <fifths>2</fifths>
          </key>
        <time>
          <beats>3</beats>
          <beat-type>4</beat-type>
          </time>
        <measure-style>
          <multiple-rest>17</multiple-rest>
          </measure-style>
        </attributes>
      <note>
        <rest measure="yes"/>
        <duration>6</duration>
        <voice>1</voice>
        </note>
      </measure>
    <measure number="26" width="0.00">
      <note>
        <rest measure="yes"/>
        <duration>6</duration>
        <voice>1</voice>
        </note>
      </measure>
    <measure number="27" width="0.00">
      <note>
        <rest measure="yes"/>
        <duration>6</duration>
        <voice>1</voice>
        </note>
      </measure>
    <measure number="28" width="0.00">
      <note>
        <rest measure="yes"/>
        <duration>6</duration>
        <voice>1</voice>
        </note>
      </measure>
    <measure number="29" width="0.00">
      <note>
        <rest measure="yes"/>
        <duration>6</duration>
        <voice>1</voice>
        </note>
      </measure>
    <measure number="30" width="0.00">
      <note>
        <rest measure="yes"/>
        <duration>6</duration>
        <voice>1</voice>
        </note>
      </measure>
    <measure number="31" width="0.00">
      <note>
        <rest measure="yes"/>
        <duration>6</duration>
        <voice>1</voice>
        </note>
      </measure>
    <measure number="32" width="0.00">
      <note>
        <rest measure="yes"/>
        <duration>6</duration>
        <voice>1</voice>
        </note>
      </measure>
    <measure number="33" width="0.00">
      <note>
        <rest measure="yes"/>
        <duration>6</duration>
        <voice>1</voice>
        </note>
      </measure>
    <measure number="34" width="0.00">
      <note>
        <rest measure="yes"/>
        <duration>6</duration>
        <voice>1</voice>
        </note>
      </measure>
    <measure number="35" width="0.00">
      <note>
        <rest measure="yes"/>
        <duration>6</duration>
        <voice>1</voice>
        </note>
      </measure>
    <measure number="36" width="0.00">
      <note>
        <rest measure="yes"/>
        <duration>6</duration>
        <voice>1</voice>
        </note>
      </measure>
    <measure number="37" width="0.00">
      <note>
        <rest measure="yes"/>
        <duration>6</duration>
        <voice>1</voice>
        </note>
      </measure>
    <measure number="38" width="0.00">
      <note>
        <rest measure="yes"/>
        <duration>6</duration>
        <voice>1</voice>
        </note>
      </measure>
    <measure number="39" width="0.00">
      <note>
        <rest measure="yes"/>
        <duration>6</duration>
        <voice>1</voice>
        </note>
      </measure>
    <measure number="40" width="0.00">
      <note>
        <rest measure="yes"/>
        <duration>6</duration>
        <voice>1</voice>
        </note>
      </measure>
    <measure number="41" width="0.00">
      <note>
        <rest measure="yes"/>
        <duration>6</duration>
        <voice>1</voice>
        </note>
      </measure>
    <measure number="42" width="63.22">
      <note>
        <rest measure="yes"/>
        <duration>6</duration>
        <voice>1</voice>
        </note>
      <barline location="right">
        <bar-style>light-light</bar-style>
        </barline>
      </measure>
    <measure number="43" width="0.00">
      <attributes>
        <key>
          <fifths>-2</fifths>
          </key>
        <time symbol="common">
          <beats>4</beats>
          <beat-type>4</beat-type>
          </time>
        <measure-style>
          <multiple-rest>22</multiple-rest>
          </measure-style>
        </attributes>
      <note>
        <rest measure="yes"/>
        <duration>8</duration>
        <voice>1</voice>
        </note>
      </measure>
    <measure number="44" width="0.00">
      <note>
        <rest measure="yes"/>
        <duration>8</duration>
        <voice>1</voice>
        </note>
      </measure>
    <measure number="45" width="0.00">
      <note>
        <rest measure="yes"/>
        <duration>8</duration>
        <voice>1</voice>
        </note>
      </measure>
    <measure number="46" width="0.00">
      <note>
        <rest measure="yes"/>
        <duration>8</duration>
        <voice>1</voice>
        </note>
      </measure>
    <measure number="47" width="0.00">
      <note>
        <rest measure="yes"/>
        <duration>8</duration>
        <voice>1</voice>
        </note>
      </measure>
    <measure number="48" width="0.00">
      <note>
        <rest measure="yes"/>
        <duration>8</duration>
        <voice>1</voice>
        </note>
      </measure>
    <measure number="49" width="0.00">
      <note>
        <rest measure="yes"/>
        <duration>8</duration>
        <voice>1</voice>
        </note>
      </measure>
    <measure number="50" width="0.00">
      <note>
        <rest measure="yes"/>
        <duration>8</duration>
        <voice>1</voice>
        </note>
      </measure>
    <measure number="51" width="0.00">
      <note>
        <rest measure="yes"/>
        <duration>8</duration>
        <voice>1</voice>
        </note>
      </measure>
    <measure number="52" width="0.00">
      <note>
        <rest measure="yes"/>
        <duration>8</duration>
        <voice>1</voice>
        </note>
      </measure>
    <measure number="53" width="0.00">
      <note>
        <rest measure="yes"/>
        <duration>8</duration>
        <voice>1</voice>
        </note>
      </measure>
    <measure number="54" width="0.00">
      <note>
        <rest measure="yes"/>
        <duration>8</duration>
        <voice>1</voice>
        </note>
      </measure>
    <measure number="55" width="0.00">
      <note>
        <rest measure="yes"/>
        <duration>8</duration>
        <voice>1</voice>
        </note>
      </measure>
    <measure number="56" width="0.00">
      <note>
        <rest measure="yes"/>
        <duration>8</duration>
        <voice>1</voice>
        </note>
      </measure>
    <measure number="57" width="0.00">
      <note>
        <rest measure="yes"/>
        <duration>8</duration>
        <voice>1</voice>
        </note>
      </measure>
    <measure number="58" width="0.00">
      <note>
        <rest measure="yes"/>
        <duration>8</duration>
        <voice>1</voice>
        </note>
      </measure>
    <measure number="59" width="0.00">
      <note>
        <rest measure="yes"/>
        <duration>8</duration>
        <voice>1</voice>
        </note>
      </measure>
    <measure number="60" width="0.00">
      <note>
        <rest measure="yes"/>
        <duration>8</duration>
        <voice>1</voice>
        </note>
      </measure>
    <measure number="61" width="0.00">
      <note>
        <rest measure="yes"/>
        <duration>8</duration>
        <voice>1</voice>
        </note>
      </measure>
    <measure number="62" width="0.00">
      <note>
        <rest measure="yes"/>
        <duration>8</duration>
        <voice>1</voice>
        </note>
      </measure>
    <measure number="63" width="0.00">
      <note>
        <rest measure="yes"/>
        <duration>8</duration>
        <voice>1</voice>
        </note>
      </measure>
    <measure number="64" width="0.00">
      <note>
        <rest measure="yes"/>
        <duration>8</duration>
        <voice>1</voice>
        </note>
      <barline location="right">
        <bar-style>light-light</bar-style>
        </barline>
      </measure>
    <measure number="65" width="0.00">
      <attributes>
        <key>
          <fifths>1</fifths>
          </key>
        <time>
          <beats>3</beats>
          <beat-type>4</beat-type>
          </time>
        <measure-style>
          <multiple-rest>18</multiple-rest>
          </measure-style>
        </attributes>
      <note>
        <rest measure="yes"/>
        <duration>6</duration>
        <voice>1</voice>
        </note>
      </measure>
    <measure number="66" width="0.00">
      <note>
        <rest measure="yes"/>
        <duration>6</duration>
        <voice>1</voice>
        </note>
      </measure>
    <measure number="67" width="0.00">
      <note>
        <rest measure="yes"/>
        <duration>6</duration>
        <voice>1</voice>
        </note>
      </measure>
    <measure number="68" width="0.00">
      <note>
        <rest measure="yes"/>
        <duration>6</duration>
        <voice>1</voice>
        </note>
      </measure>
    <measure number="69" width="0.00">
      <note>
        <rest measure="yes"/>
        <duration>6</duration>
        <voice>1</voice>
        </note>
      </measure>
    <measure number="70" width="0.00">
      <note>
        <rest measure="yes"/>
        <duration>6</duration>
        <voice>1</voice>
        </note>
      </measure>
    <measure number="71" width="0.00">
      <note>
        <rest measure="yes"/>
        <duration>6</duration>
        <voice>1</voice>
        </note>
      </measure>
    <measure number="72" width="0.00">
      <note>
        <rest measure="yes"/>
        <duration>6</duration>
        <voice>1</voice>
        </note>
      </measure>
    <measure number="73" width="0.00">
      <note>
        <rest measure="yes"/>
        <duration>6</duration>
        <voice>1</voice>
        </note>
      </measure>
    <measure number="74" width="0.00">
      <note>
        <rest measure="yes"/>
        <duration>6</duration>
        <voice>1</voice>
        </note>
      </measure>
    <measure number="75" width="0.00">
      <note>
        <rest measure="yes"/>
        <duration>6</duration>
        <voice>1</voice>
        </note>
      </measure>
    <measure number="76" width="0.00">
      <note>
        <rest measure="yes"/>
        <duration>6</duration>
        <voice>1</voice>
        </note>
      </measure>
    <measure number="77" width="0.00">
      <note>
        <rest measure="yes"/>
        <duration>6</duration>
        <voice>1</voice>
        </note>
      </measure>
    <measure number="78" width="0.00">
      <note>
        <rest measure="yes"/>
        <duration>6</duration>
        <voice>1</voice>
        </note>
      </measure>
    <measure number="79" width="0.00">
      <note>
        <rest measure="yes"/>
        <duration>6</duration>
        <voice>1</voice>
        </note>
      </measure>
    <measure number="80" width="0.00">
      <note>
        <rest measure="yes"/>
        <duration>6</duration>
        <voice>1</voice>
        </note>
      </measure>
    <measure number="81" width="0.00">
      <note>
        <rest measure="yes"/>
        <duration>6</duration>
        <voice>1</voice>
        </note>
      </measure>
    <measure number="82" width="0.00">
      <note>
        <rest measure="yes"/>
        <duration>6</duration>
        <voice>1</voice>
        </note>
      <barline location="right">
        <bar-style>light-light</bar-style>
        </barline>
      </measure>
    <measure number="83" width="0.00">
      <attributes>
        <key>
          <fifths>-3</fifths>
          </key>
        <time symbol="common">
          <beats>4</beats>
          <beat-type>4</beat-type>
          </time>
        <measure-style>
          <multiple-rest>16</multiple-rest>
          </measure-style>
        </attributes>
      <note>
        <rest measure="yes"/>
        <duration>8</duration>
        <voice>1</voice>
        </note>
      </measure>
    <measure number="84" width="0.00">
      <note>
        <rest measure="yes"/>
        <duration>8</duration>
        <voice>1</voice>
        </note>
      </measure>
    <measure number="85" width="0.00">
      <note>
        <rest measure="yes"/>
        <duration>8</duration>
        <voice>1</voice>
        </note>
      </measure>
    <measure number="86" width="0.00">
      <note>
        <rest measure="yes"/>
        <duration>8</duration>
        <voice>1</voice>
        </note>
      </measure>
    <measure number="87" width="0.00">
      <note>
        <rest measure="yes"/>
        <duration>8</duration>
        <voice>1</voice>
        </note>
      </measure>
    <measure number="88" width="0.00">
      <note>
        <rest measure="yes"/>
        <duration>8</duration>
        <voice>1</voice>
        </note>
      </measure>
    <measure number="89" width="0.00">
      <note>
        <rest measure="yes"/>
        <duration>8</duration>
        <voice>1</voice>
        </note>
      </measure>
    <measure number="90" width="0.00">
      <note>
        <rest measure="yes"/>
        <duration>8</duration>
        <voice>1</voice>
        </note>
      </measure>
    <measure number="91" width="0.00">
      <note>
        <rest measure="yes"/>
        <duration>8</duration>
        <voice>1</voice>
        </note>
      </measure>
    <measure number="92" width="0.00">
      <note>
        <rest measure="yes"/>
        <duration>8</duration>
        <voice>1</voice>
        </note>
      </measure>
    <measure number="93" width="0.00">
      <note>
        <rest measure="yes"/>
        <duration>8</duration>
        <voice>1</voice>
        </note>
      </measure>
    <measure number="94" width="0.00">
      <note>
        <rest measure="yes"/>
        <duration>8</duration>
        <voice>1</voice>
        </note>
      </measure>
    <measure number="95" width="0.00">
      <note>
        <rest measure="yes"/>
        <duration>8</duration>
        <voice>1</voice>
        </note>
      </measure>
    <measure number="96" width="0.00">
      <note>
        <rest measure="yes"/>
        <duration>8</duration>
        <voice>1</voice>
        </note>
      </measure>
    <measure number="97" width="0.00">
      <note>
        <rest measure="yes"/>
        <duration>8</duration>
        <voice>1</voice>
        </note>
      </measure>
    <measure number="98" width="0.00">
      <note>
        <rest measure="yes"/>
        <duration>8</duration>
        <voice>1</voice>
        </note>
      <barline location="right">
        <bar-style>light-light</bar-style>
        </barline>
      </measure>
    <measure number="99" width="0.00">
      <attributes>
        <key>
          <fifths>-2</fifths>
          </key>
        <time>
          <beats>12</beats>
          <beat-type>8</beat-type>
          </time>
        <measure-style>
          <multiple-rest>59</multiple-rest>
          </measure-style>
        </attributes>
      <note>
        <rest measure="yes"/>
        <duration>12</duration>
        <voice>1</voice>
        </note>
      </measure>
    <measure number="100" width="0.00">
      <note>
        <rest measure="yes"/>
        <duration>12</duration>
        <voice>1</voice>
        </note>
      </measure>
    <measure number="101" width="0.00">
      <note>
        <rest measure="yes"/>
        <duration>12</duration>
        <voice>1</voice>
        </note>
      </measure>
    <measure number="102" width="0.00">
      <note>
        <rest measure="yes"/>
        <duration>12</duration>
        <voice>1</voice>
        </note>
      </measure>
    <measure number="103" width="0.00">
      <note>
        <rest measure="yes"/>
        <duration>12</duration>
        <voice>1</voice>
        </note>
      </measure>
    <measure number="104" width="0.00">
      <note>
        <rest measure="yes"/>
        <duration>12</duration>
        <voice>1</voice>
        </note>
      </measure>
    <measure number="105" width="0.00">
      <note>
        <rest measure="yes"/>
        <duration>12</duration>
        <voice>1</voice>
        </note>
      </measure>
    <measure number="106" width="0.00">
      <note>
        <rest measure="yes"/>
        <duration>12</duration>
        <voice>1</voice>
        </note>
      </measure>
    <measure number="107" width="0.00">
      <note>
        <rest measure="yes"/>
        <duration>12</duration>
        <voice>1</voice>
        </note>
      </measure>
    <measure number="108" width="0.00">
      <note>
        <rest measure="yes"/>
        <duration>12</duration>
        <voice>1</voice>
        </note>
      </measure>
    <measure number="109" width="0.00">
      <note>
        <rest measure="yes"/>
        <duration>12</duration>
        <voice>1</voice>
        </note>
      </measure>
    <measure number="110" width="0.00">
      <note>
        <rest measure="yes"/>
        <duration>12</duration>
        <voice>1</voice>
        </note>
      </measure>
    <measure number="111" width="0.00">
      <note>
        <rest measure="yes"/>
        <duration>12</duration>
        <voice>1</voice>
        </note>
      </measure>
    <measure number="112" width="0.00">
      <note>
        <rest measure="yes"/>
        <duration>12</duration>
        <voice>1</voice>
        </note>
      </measure>
    <measure number="113" width="0.00">
      <note>
        <rest measure="yes"/>
        <duration>12</duration>
        <voice>1</voice>
        </note>
      </measure>
    <measure number="114" width="0.00">
      <note>
        <rest measure="yes"/>
        <duration>12</duration>
        <voice>1</voice>
        </note>
      </measure>
    <measure number="115" width="0.00">
      <note>
        <rest measure="yes"/>
        <duration>12</duration>
        <voice>1</voice>
        </note>
      </measure>
    <measure number="116" width="0.00">
      <note>
        <rest measure="yes"/>
        <duration>12</duration>
        <voice>1</voice>
        </note>
      </measure>
    <measure number="117" width="0.00">
      <note>
        <rest measure="yes"/>
        <duration>12</duration>
        <voice>1</voice>
        </note>
      </measure>
    <measure number="118" width="0.00">
      <note>
        <rest measure="yes"/>
        <duration>12</duration>
        <voice>1</voice>
        </note>
      </measure>
    <measure number="119" width="0.00">
      <note>
        <rest measure="yes"/>
        <duration>12</duration>
        <voice>1</voice>
        </note>
      </measure>
    <measure number="120" width="0.00">
      <note>
        <rest measure="yes"/>
        <duration>12</duration>
        <voice>1</voice>
        </note>
      </measure>
    <measure number="121" width="0.00">
      <note>
        <rest measure="yes"/>
        <duration>12</duration>
        <voice>1</voice>
        </note>
      </measure>
    <measure number="122" width="0.00">
      <note>
        <rest measure="yes"/>
        <duration>12</duration>
        <voice>1</voice>
        </note>
      </measure>
    <measure number="123" width="0.00">
      <note>
        <rest measure="yes"/>
        <duration>12</duration>
        <voice>1</voice>
        </note>
      </measure>
    <measure number="124" width="0.00">
      <note>
        <rest measure="yes"/>
        <duration>12</duration>
        <voice>1</voice>
        </note>
      </measure>
    <measure number="125" width="0.00">
      <note>
        <rest measure="yes"/>
        <duration>12</duration>
        <voice>1</voice>
        </note>
      </measure>
    <measure number="126" width="0.00">
      <note>
        <rest measure="yes"/>
        <duration>12</duration>
        <voice>1</voice>
        </note>
      </measure>
    <measure number="127" width="0.00">
      <note>
        <rest measure="yes"/>
        <duration>12</duration>
        <voice>1</voice>
        </note>
      </measure>
    <measure number="128" width="0.00">
      <note>
        <rest measure="yes"/>
        <duration>12</duration>
        <voice>1</voice>
        </note>
      </measure>
    <measure number="129" width="0.00">
      <note>
        <rest measure="yes"/>
        <duration>12</duration>
        <voice>1</voice>
        </note>
      </measure>
    <measure number="130" width="0.00">
      <note>
        <rest measure="yes"/>
        <duration>12</duration>
        <voice>1</voice>
        </note>
      </measure>
    <measure number="131" width="0.00">
      <note>
        <rest measure="yes"/>
        <duration>12</duration>
        <voice>1</voice>
        </note>
      </measure>
    <measure number="132" width="0.00">
      <note>
        <rest measure="yes"/>
        <duration>12</duration>
        <voice>1</voice>
        </note>
      </measure>
    <measure number="133" width="0.00">
      <note>
        <rest measure="yes"/>
        <duration>12</duration>
        <voice>1</voice>
        </note>
      </measure>
    <measure number="134" width="0.00">
      <note>
        <rest measure="yes"/>
        <duration>12</duration>
        <voice>1</voice>
        </note>
      </measure>
    <measure number="135" width="0.00">
      <note>
        <rest measure="yes"/>
        <duration>12</duration>
        <voice>1</voice>
        </note>
      </measure>
    <measure number="136" width="0.00">
      <note>
        <rest measure="yes"/>
        <duration>12</duration>
        <voice>1</voice>
        </note>
      </measure>
    <measure number="137" width="0.00">
      <note>
        <rest measure="yes"/>
        <duration>12</duration>
        <voice>1</voice>
        </note>
      </measure>
    <measure number="138" width="0.00">
      <note>
        <rest measure="yes"/>
        <duration>12</duration>
        <voice>1</voice>
        </note>
      </measure>
    <measure number="139" width="0.00">
      <note>
        <rest measure="yes"/>
        <duration>12</duration>
        <voice>1</voice>
        </note>
      </measure>
    <measure number="140" width="0.00">
      <note>
        <rest measure="yes"/>
        <duration>12</duration>
        <voice>1</voice>
        </note>
      </measure>
    <measure number="141" width="0.00">
      <note>
        <rest measure="yes"/>
        <duration>12</duration>
        <voice>1</voice>
        </note>
      </measure>
    <measure number="142" width="0.00">
      <note>
        <rest measure="yes"/>
        <duration>12</duration>
        <voice>1</voice>
        </note>
      </measure>
    <measure number="143" width="0.00">
      <note>
        <rest measure="yes"/>
        <duration>12</duration>
        <voice>1</voice>
        </note>
      </measure>
    <measure number="144" width="0.00">
      <note>
        <rest measure="yes"/>
        <duration>12</duration>
        <voice>1</voice>
        </note>
      </measure>
    <measure number="145" width="0.00">
      <note>
        <rest measure="yes"/>
        <duration>12</duration>
        <voice>1</voice>
        </note>
      </measure>
    <measure number="146" width="0.00">
      <note>
        <rest measure="yes"/>
        <duration>12</duration>
        <voice>1</voice>
        </note>
      </measure>
    <measure number="147" width="0.00">
      <note>
        <rest measure="yes"/>
        <duration>12</duration>
        <voice>1</voice>
        </note>
      </measure>
    <measure number="148" width="0.00">
      <note>
        <rest measure="yes"/>
        <duration>12</duration>
        <voice>1</voice>
        </note>
      </measure>
    <measure number="149" width="0.00">
      <note>
        <rest measure="yes"/>
        <duration>12</duration>
        <voice>1</voice>
        </note>
      </measure>
    <measure number="150" width="0.00">
      <note>
        <rest measure="yes"/>
        <duration>12</duration>
        <voice>1</voice>
        </note>
      </measure>
    <measure number="151" width="0.00">
      <note>
        <rest measure="yes"/>
        <duration>12</duration>
        <voice>1</voice>
        </note>
      </measure>
    <measure number="152" width="0.00">
      <note>
        <rest measure="yes"/>
        <duration>12</duration>
        <voice>1</voice>
        </note>
      </measure>
    <measure number="153" width="0.00">
      <note>
        <rest measure="yes"/>
        <duration>12</duration>
        <voice>1</voice>
        </note>
      </measure>
    <measure number="154" width="0.00">
      <note>
        <rest measure="yes"/>
        <duration>12</duration>
        <voice>1</voice>
        </note>
      </measure>
    <measure number="155" width="0.00">
      <note>
        <rest measure="yes"/>
        <duration>12</duration>
        <voice>1</voice>
        </note>
      </measure>
    <measure number="156" width="0.00">
      <note>
        <rest measure="yes"/>
        <duration>12</duration>
        <voice>1</voice>
        </note>
      </measure>
    <measure number="157" width="0.00">
      <note>
        <rest measure="yes"/>
        <duration>12</duration>
        <voice>1</voice>
        </note>
      <barline location="right">
        <bar-style>light-heavy</bar-style>
        </barline>
      </measure>
    </part>
  </score-partwise>
