<?xml version="1.0" encoding="UTF-8"?>
<!DOCTYPE score-partwise PUBLIC "-//Recordare//DTD MusicXML 4.0 Partwise//EN" "http://www.musicxml.org/dtds/partwise.dtd">
<score-partwise version="4.0">
  <part-list>
    <score-part id="P1">
      <part-name>Piano</part-name>
    </score-part>
  </part-list>
  <part id="P1">
    <!-- Measures 1-3: fill system 0, no octave shift -->
    <measure number="1">
      <attributes>
        <divisions>4</divisions>
        <key><fifths>0</fifths></key>
        <time><beats>4</beats><beat-type>4</beat-type></time>
        <clef><sign>G</sign><line>2</line></clef>
      </attributes>
      <note><pitch><step>C</step><octave>4</octave></pitch><duration>1</duration><type>16th</type></note>
      <note><pitch><step>D</step><octave>4</octave></pitch><duration>1</duration><type>16th</type></note>
      <note><pitch><step>E</step><octave>4</octave></pitch><duration>1</duration><type>16th</type></note>
      <note><pitch><step>F</step><octave>4</octave></pitch><duration>1</duration><type>16th</type></note>
      <note><pitch><step>G</step><octave>4</octave></pitch><duration>1</duration><type>16th</type></note>
      <note><pitch><step>A</step><octave>4</octave></pitch><duration>1</duration><type>16th</type></note>
      <note><pitch><step>B</step><octave>4</octave></pitch><duration>1</duration><type>16th</type></note>
      <note><pitch><step>C</step><octave>5</octave></pitch><duration>1</duration><type>16th</type></note>
      <note><pitch><step>D</step><octave>5</octave></pitch><duration>1</duration><type>16th</type></note>
      <note><pitch><step>E</step><octave>5</octave></pitch><duration>1</duration><type>16th</type></note>
      <note><pitch><step>F</step><octave>5</octave></pitch><duration>1</duration><type>16th</type></note>
      <note><pitch><step>G</step><octave>5</octave></pitch><duration>1</duration><type>16th</type></note>
      <note><pitch><step>A</step><octave>5</octave></pitch><duration>1</duration><type>16th</type></note>
      <note><pitch><step>B</step><octave>5</octave></pitch><duration>1</duration><type>16th</type></note>
      <note><pitch><step>C</step><octave>6</octave></pitch><duration>1</duration><type>16th</type></note>
      <note><pitch><step>D</step><octave>6</octave></pitch><duration>1</duration><type>16th</type></note>
    </measure>
    <measure number="2">
      <note><pitch><step>C</step><octave>4</octave></pitch><duration>1</duration><type>16th</type></note>
      <note><pitch><step>D</step><octave>4</octave></pitch><duration>1</duration><type>16th</type></note>
      <note><pitch><step>E</step><octave>4</octave></pitch><duration>1</duration><type>16th</type></note>
      <note><pitch><step>F</step><octave>4</octave></pitch><duration>1</duration><type>16th</type></note>
      <note><pitch><step>G</step><octave>4</octave></pitch><duration>1</duration><type>16th</type></note>
      <note><pitch><step>A</step><octave>4</octave></pitch><duration>1</duration><type>16th</type></note>
      <note><pitch><step>B</step><octave>4</octave></pitch><duration>1</duration><type>16th</type></note>
      <note><pitch><step>C</step><octave>5</octave></pitch><duration>1</duration><type>16th</type></note>
      <note><pitch><step>D</step><octave>5</octave></pitch><duration>1</duration><type>16th</type></note>
      <note><pitch><step>E</step><octave>5</octave></pitch><duration>1</duration><type>16th</type></note>
      <note><pitch><step>F</step><octave>5</octave></pitch><duration>1</duration><type>16th</type></note>
      <note><pitch><step>G</step><octave>5</octave></pitch><duration>1</duration><type>16th</type></note>
      <note><pitch><step>A</step><octave>5</octave></pitch><duration>1</duration><type>16th</type></note>
      <note><pitch><step>B</step><octave>5</octave></pitch><duration>1</duration><type>16th</type></note>
      <note><pitch><step>C</step><octave>6</octave></pitch><duration>1</duration><type>16th</type></note>
      <note><pitch><step>D</step><octave>6</octave></pitch><duration>1</duration><type>16th</type></note>
    </measure>
    <measure number="3">
      <note><pitch><step>C</step><octave>4</octave></pitch><duration>1</duration><type>16th</type></note>
      <note><pitch><step>D</step><octave>4</octave></pitch><duration>1</duration><type>16th</type></note>
      <note><pitch><step>E</step><octave>4</octave></pitch><duration>1</duration><type>16th</type></note>
      <note><pitch><step>F</step><octave>4</octave></pitch><duration>1</duration><type>16th</type></note>
      <note><pitch><step>G</step><octave>4</octave></pitch><duration>1</duration><type>16th</type></note>
      <note><pitch><step>A</step><octave>4</octave></pitch><duration>1</duration><type>16th</type></note>
      <note><pitch><step>B</step><octave>4</octave></pitch><duration>1</duration><type>16th</type></note>
      <note><pitch><step>C</step><octave>5</octave></pitch><duration>1</duration><type>16th</type></note>
      <note><pitch><step>D</step><octave>5</octave></pitch><duration>1</duration><type>16th</type></note>
      <note><pitch><step>E</step><octave>5</octave></pitch><duration>1</duration><type>16th</type></note>
      <note><pitch><step>F</step><octave>5</octave></pitch><duration>1</duration><type>16th</type></note>
      <note><pitch><step>G</step><octave>5</octave></pitch><duration>1</duration><type>16th</type></note>
      <note><pitch><step>A</step><octave>5</octave></pitch><duration>1</duration><type>16th</type></note>
      <note><pitch><step>B</step><octave>5</octave></pitch><duration>1</duration><type>16th</type></note>
      <note><pitch><step>C</step><octave>6</octave></pitch><duration>1</duration><type>16th</type></note>
      <note><pitch><step>D</step><octave>6</octave></pitch><duration>1</duration><type>16th</type></note>
    </measure>
    <!-- Measures 4-6: system 1, 8va starts here -->
    <measure number="4">
      <direction placement="above">
        <direction-type>
          <octave-shift type="up" size="8"/>
        </direction-type>
      </direction>
      <note><pitch><step>C</step><octave>5</octave></pitch><duration>1</duration><type>16th</type></note>
      <note><pitch><step>D</step><octave>5</octave></pitch><duration>1</duration><type>16th</type></note>
      <note><pitch><step>E</step><octave>5</octave></pitch><duration>1</duration><type>16th</type></note>
      <note><pitch><step>F</step><octave>5</octave></pitch><duration>1</duration><type>16th</type></note>
      <note><pitch><step>G</step><octave>5</octave></pitch><duration>1</duration><type>16th</type></note>
      <note><pitch><step>A</step><octave>5</octave></pitch><duration>1</duration><type>16th</type></note>
      <note><pitch><step>B</step><octave>5</octave></pitch><duration>1</duration><type>16th</type></note>
      <note><pitch><step>C</step><octave>6</octave></pitch><duration>1</duration><type>16th</type></note>
      <note><pitch><step>D</step><octave>6</octave></pitch><duration>1</duration><type>16th</type></note>
      <note><pitch><step>E</step><octave>6</octave></pitch><duration>1</duration><type>16th</type></note>
      <note><pitch><step>F</step><octave>6</octave></pitch><duration>1</duration><type>16th</type></note>
      <note><pitch><step>G</step><octave>6</octave></pitch><duration>1</duration><type>16th</type></note>
      <note><pitch><step>A</step><octave>6</octave></pitch><duration>1</duration><type>16th</type></note>
      <note><pitch><step>B</step><octave>6</octave></pitch><duration>1</duration><type>16th</type></note>
      <note><pitch><step>C</step><octave>7</octave></pitch><duration>1</duration><type>16th</type></note>
      <note><pitch><step>D</step><octave>7</octave></pitch><duration>1</duration><type>16th</type></note>
    </measure>
    <measure number="5">
      <note><pitch><step>C</step><octave>5</octave></pitch><duration>1</duration><type>16th</type></note>
      <note><pitch><step>D</step><octave>5</octave></pitch><duration>1</duration><type>16th</type></note>
      <note><pitch><step>E</step><octave>5</octave></pitch><duration>1</duration><type>16th</type></note>
      <note><pitch><step>F</step><octave>5</octave></pitch><duration>1</duration><type>16th</type></note>
      <note><pitch><step>G</step><octave>5</octave></pitch><duration>1</duration><type>16th</type></note>
      <note><pitch><step>A</step><octave>5</octave></pitch><duration>1</duration><type>16th</type></note>
      <note><pitch><step>B</step><octave>5</octave></pitch><duration>1</duration><type>16th</type></note>
      <note><pitch><step>C</step><octave>6</octave></pitch><duration>1</duration><type>16th</type></note>
      <note><pitch><step>D</step><octave>6</octave></pitch><duration>1</duration><type>16th</type></note>
      <note><pitch><step>E</step><octave>6</octave></pitch><duration>1</duration><type>16th</type></note>
      <note><pitch><step>F</step><octave>6</octave></pitch><duration>1</duration><type>16th</type></note>
      <note><pitch><step>G</step><octave>6</octave></pitch><duration>1</duration><type>16th</type></note>
      <note><pitch><step>A</step><octave>6</octave></pitch><duration>1</duration><type>16th</type></note>
      <note><pitch><step>B</step><octave>6</octave></pitch><duration>1</duration><type>16th</type></note>
      <note><pitch><step>C</step><octave>7</octave></pitch><duration>1</duration><type>16th</type></note>
      <note><pitch><step>D</step><octave>7</octave></pitch><duration>1</duration><type>16th</type></note>
    </measure>
    <measure number="6">
      <note><pitch><step>C</step><octave>5</octave></pitch><duration>1</duration><type>16th</type></note>
      <note><pitch><step>D</step><octave>5</octave></pitch><duration>1</duration><type>16th</type></note>
      <note><pitch><step>E</step><octave>5</octave></pitch><duration>1</duration><type>16th</type></note>
      <note><pitch><step>F</step><octave>5</octave></pitch><duration>1</duration><type>16th</type></note>
      <note><pitch><step>G</step><octave>5</octave></pitch><duration>1</duration><type>16th</type></note>
      <note><pitch><step>A</step><octave>5</octave></pitch><duration>1</duration><type>16th</type></note>
      <note><pitch><step>B</step><octave>5</octave></pitch><duration>1</duration><type>16th</type></note>
      <note><pitch><step>C</step><octave>6</octave></pitch><duration>1</duration><type>16th</type></note>
      <note><pitch><step>D</step><octave>6</octave></pitch><duration>1</duration><type>16th</type></note>
      <note><pitch><step>E</step><octave>6</octave></pitch><duration>1</duration><type>16th</type></note>
      <note><pitch><step>F</step><octave>6</octave></pitch><duration>1</duration><type>16th</type></note>
      <note><pitch><step>G</step><octave>6</octave></pitch><duration>1</duration><type>16th</type></note>
      <note><pitch><step>A</step><octave>6</octave></pitch><duration>1</duration><type>16th</type></note>
      <note><pitch><step>B</step><octave>6</octave></pitch><duration>1</duration><type>16th</type></note>
      <note><pitch><step>C</step><octave>7</octave></pitch><duration>1</duration><type>16th</type></note>
      <note><pitch><step>D</step><octave>7</octave></pitch><duration>1</duration><type>16th</type></note>
    </measure>
    <!-- Measures 7-9: system 2 (intermediate), still under 8va, with trailing grace notes -->
    <measure number="7">
      <note><pitch><step>C</step><octave>5</octave></pitch><duration>1</duration><type>16th</type></note>
      <note><pitch><step>D</step><octave>5</octave></pitch><duration>1</duration><type>16th</type></note>
      <note><pitch><step>E</step><octave>5</octave></pitch><duration>1</duration><type>16th</type></note>
      <note><pitch><step>F</step><octave>5</octave></pitch><duration>1</duration><type>16th</type></note>
      <note><pitch><step>G</step><octave>5</octave></pitch><duration>1</duration><type>16th</type></note>
      <note><pitch><step>A</step><octave>5</octave></pitch><duration>1</duration><type>16th</type></note>
      <note><pitch><step>B</step><octave>5</octave></pitch><duration>1</duration><type>16th</type></note>
      <note><pitch><step>C</step><octave>6</octave></pitch><duration>1</duration><type>16th</type></note>
      <note><pitch><step>D</step><octave>6</octave></pitch><duration>1</duration><type>16th</type></note>
      <note><pitch><step>E</step><octave>6</octave></pitch><duration>1</duration><type>16th</type></note>
      <note><pitch><step>F</step><octave>6</octave></pitch><duration>1</duration><type>16th</type></note>
      <note><pitch><step>G</step><octave>6</octave></pitch><duration>1</duration><type>16th</type></note>
      <note><pitch><step>A</step><octave>6</octave></pitch><duration>1</duration><type>16th</type></note>
      <note><pitch><step>B</step><octave>6</octave></pitch><duration>1</duration><type>16th</type></note>
      <note><pitch><step>C</step><octave>7</octave></pitch><duration>1</duration><type>16th</type></note>
      <note><pitch><step>D</step><octave>7</octave></pitch><duration>1</duration><type>16th</type></note>
    </measure>
    <measure number="8">
      <note><pitch><step>C</step><octave>5</octave></pitch><duration>1</duration><type>16th</type></note>
      <note><pitch><step>D</step><octave>5</octave></pitch><duration>1</duration><type>16th</type></note>
      <note><pitch><step>E</step><octave>5</octave></pitch><duration>1</duration><type>16th</type></note>
      <note><pitch><step>F</step><octave>5</octave></pitch><duration>1</duration><type>16th</type></note>
      <note><pitch><step>G</step><octave>5</octave></pitch><duration>1</duration><type>16th</type></note>
      <note><pitch><step>A</step><octave>5</octave></pitch><duration>1</duration><type>16th</type></note>
      <note><pitch><step>B</step><octave>5</octave></pitch><duration>1</duration><type>16th</type></note>
      <note><pitch><step>C</step><octave>6</octave></pitch><duration>1</duration><type>16th</type></note>
      <note><pitch><step>D</step><octave>6</octave></pitch><duration>1</duration><type>16th</type></note>
      <note><pitch><step>E</step><octave>6</octave></pitch><duration>1</duration><type>16th</type></note>
      <note><pitch><step>F</step><octave>6</octave></pitch><duration>1</duration><type>16th</type></note>
      <note><pitch><step>G</step><octave>6</octave></pitch><duration>1</duration><type>16th</type></note>
      <note><pitch><step>A</step><octave>6</octave></pitch><duration>1</duration><type>16th</type></note>
      <note><pitch><step>B</step><octave>6</octave></pitch><duration>1</duration><type>16th</type></note>
      <note><pitch><step>C</step><octave>7</octave></pitch><duration>1</duration><type>16th</type></note>
      <note><pitch><step>D</step><octave>7</octave></pitch><duration>1</duration><type>16th</type></note>
    </measure>
    <measure number="9">
      <!-- A chord followed by grace notes, like the Nocturne's measure 32 -->
      <note><pitch><step>E</step><octave>5</octave></pitch><duration>16</duration><type>whole</type></note>
      <note><grace/><pitch><step>F</step><octave>5</octave></pitch><type>16th</type></note>
      <note><grace/><pitch><step>G</step><octave>5</octave></pitch><type>16th</type></note>
      <note><grace/><pitch><step>A</step><octave>5</octave></pitch><type>16th</type></note>
      <note><grace/><pitch><step>B</step><octave>5</octave></pitch><type>16th</type></note>
      <note><grace/><pitch><step>C</step><octave>6</octave></pitch><type>16th</type></note>
      <note><grace/><pitch><step>D</step><octave>6</octave></pitch><type>16th</type></note>
      <note><grace/><pitch><step>E</step><octave>6</octave></pitch><type>16th</type></note>
      <note><grace/><pitch><step>F</step><octave>6</octave></pitch><type>16th</type></note>
    </measure>
    <!-- Measures 10-12: system 3, 8va ends here -->
    <measure number="10">
      <note><pitch><step>C</step><octave>5</octave></pitch><duration>1</duration><type>16th</type></note>
      <note><pitch><step>D</step><octave>5</octave></pitch><duration>1</duration><type>16th</type></note>
      <note><pitch><step>E</step><octave>5</octave></pitch><duration>1</duration><type>16th</type></note>
      <note><pitch><step>F</step><octave>5</octave></pitch><duration>1</duration><type>16th</type></note>
      <note><pitch><step>G</step><octave>5</octave></pitch><duration>1</duration><type>16th</type></note>
      <note><pitch><step>A</step><octave>5</octave></pitch><duration>1</duration><type>16th</type></note>
      <note><pitch><step>B</step><octave>5</octave></pitch><duration>1</duration><type>16th</type></note>
      <note><pitch><step>C</step><octave>6</octave></pitch><duration>1</duration><type>16th</type></note>
      <note><pitch><step>D</step><octave>6</octave></pitch><duration>1</duration><type>16th</type></note>
      <note><pitch><step>E</step><octave>6</octave></pitch><duration>1</duration><type>16th</type></note>
      <note><pitch><step>F</step><octave>6</octave></pitch><duration>1</duration><type>16th</type></note>
      <note><pitch><step>G</step><octave>6</octave></pitch><duration>1</duration><type>16th</type></note>
      <note><pitch><step>A</step><octave>6</octave></pitch><duration>1</duration><type>16th</type></note>
      <note><pitch><step>B</step><octave>6</octave></pitch><duration>1</duration><type>16th</type></note>
      <note><pitch><step>C</step><octave>7</octave></pitch><duration>1</duration><type>16th</type></note>
      <note><pitch><step>D</step><octave>7</octave></pitch><duration>1</duration><type>16th</type></note>
      <direction placement="above">
        <direction-type>
          <octave-shift type="stop" size="8"/>
        </direction-type>
      </direction>
    </measure>
    <measure number="11">
      <note><pitch><step>C</step><octave>4</octave></pitch><duration>16</duration><type>whole</type></note>
      <barline location="right">
        <bar-style>light-heavy</bar-style>
      </barline>
    </measure>
  </part>
</score-partwise>
