<?xml version='1.0' encoding='UTF-8' standalone='no'?>
<!DOCTYPE score-partwise PUBLIC '-//Recordare//DTD MusicXML 4.0 Partwise//EN' 'http://www.musicxml.org/dtds/partwise.dtd'>
<score-partwise version='4.0'>
	<movement-title>test_courtesy_accidentals</movement-title>
	<identification>
		<encoding>
			<software>Sibelius 2024.6</software>
			<software>Dolet 8.3 for Sibelius</software>
			<encoding-date>2024-11-03</encoding-date>
			<supports element='accidental' type='yes'/>
			<supports element='transpose' type='yes'/>
			<supports attribute='new-page' element='print' type='yes' value='yes'/>
			<supports attribute='new-system' element='print' type='yes' value='yes'/>
		</encoding>
	</identification>
	<defaults>
		<scaling>
			<millimeters>6.5</millimeters>
			<tenths>40</tenths>
		</scaling>
		<page-layout>
			<page-height>1828</page-height>
			<page-width>1292</page-width>
			<page-margins type='both'>
				<left-margin>78.1538</left-margin>
				<right-margin>78.1538</right-margin>
				<top-margin>78.1538</top-margin>
				<bottom-margin>78.1538</bottom-margin>
			</page-margins>
		</page-layout>
		<system-layout>
			<system-margins>
				<left-margin>0</left-margin>
				<right-margin>0</right-margin>
			</system-margins>
			<system-distance>130</system-distance>
			<top-system-distance>153.75</top-system-distance>
		</system-layout>
		<staff-layout>
			<staff-distance>70</staff-distance>
		</staff-layout>
		<?DoletSibelius StaffJustificationPercentage=40?>
		<appearance>
			<line-width type='beam'>5</line-width>
			<line-width type='heavy barline'>5</line-width>
			<line-width type='leger'>1.5625</line-width>
			<line-width type='light barline'>1.5625</line-width>
			<line-width type='slur middle'>2.1875</line-width>
			<line-width type='slur tip'>0.625</line-width>
			<line-width type='staff'>1.25</line-width>
			<line-width type='stem'>1.25</line-width>
			<line-width type='tie middle'>2.1875</line-width>
			<line-width type='tie tip'>0.625</line-width>
			<note-size type='grace'>60</note-size>
			<note-size type='cue'>75</note-size>
		</appearance>
		<music-font font-family='Helsinki Std,engraved'/>
		<word-font font-family='Palatino,serif'/>
	</defaults>
	<part-list>
		<score-part id='P1'>
			<part-name print-object='no'>Piano</part-name>
			<part-abbreviation print-object='no'>Pno.</part-abbreviation>
			<group>score</group>
			<score-instrument id='P1-I1'>
				<instrument-name>Piano</instrument-name>
				<instrument-abbreviation>Pno.</instrument-abbreviation>
				<instrument-sound>keyboard.piano.grand</instrument-sound>
			</score-instrument>
			<midi-instrument id='P1-I1'>
				<volume>79</volume>
				<pan>-18</pan>
			</midi-instrument>
		</score-part>
	</part-list>
<!--=========================================================-->
	<part id='P1'>
		<measure number='1'>
			<print>
				<system-layout>
					<top-system-distance>246.25</top-system-distance>
				</system-layout>
				<staff-layout>
					<?DoletSibelius JustifyAllStaves=false?>
				</staff-layout>
			</print>
			<attributes>
				<divisions>768</divisions>
				<key>
					<fifths>2</fifths>
					<mode>major</mode>
				</key>
				<time>
					<beats>6</beats>
					<beat-type>8</beat-type>
				</time>
				<staves>2</staves>
				<clef number='1'>
					<sign>G</sign>
					<line>2</line>
				</clef>
				<clef number='2'>
					<sign>F</sign>
					<line>4</line>
				</clef>
			</attributes>
			<direction placement='above' directive='yes' system='only-top'>
				<direction-type>
					<metronome>
						<beat-unit>quarter</beat-unit>
						<per-minute>192</per-minute>
					</metronome>
				</direction-type>
				<staff>1</staff>
				<sound tempo='192'/>
			</direction>
			<note>
				<pitch>
					<step>C</step>
					<alter>1</alter>
					<octave>4</octave>
				</pitch>
				<duration>2304</duration>
				<voice>1</voice>
				<type>half</type>
				<dot/>
				<accidental>sharp</accidental>
				<stem>up</stem>
				<staff>1</staff>
			</note>
			<backup>
				<duration>2304</duration>
			</backup>
			<note>
				<rest measure='yes'/>
				<duration>2304</duration>
				<voice>5</voice>
				<staff>2</staff>
			</note>
		</measure>
<!--=========================================================-->
		<measure number='2'>
			<note>
				<pitch>
					<step>D</step>
					<octave>4</octave>
				</pitch>
				<duration>2304</duration>
				<voice>1</voice>
				<type>half</type>
				<dot/>
				<stem>up</stem>
				<staff>1</staff>
			</note>
			<backup>
				<duration>2304</duration>
			</backup>
			<note>
				<rest measure='yes'/>
				<duration>2304</duration>
				<voice>5</voice>
				<staff>2</staff>
			</note>
		</measure>
<!--=========================================================-->
		<measure number='3'>
			<note>
				<pitch>
					<step>E</step>
					<octave>4</octave>
				</pitch>
				<duration>2304</duration>
				<voice>1</voice>
				<type>half</type>
				<dot/>
				<stem>up</stem>
				<staff>1</staff>
			</note>
			<backup>
				<duration>2304</duration>
			</backup>
			<note>
				<rest measure='yes'/>
				<duration>2304</duration>
				<voice>5</voice>
				<staff>2</staff>
			</note>
		</measure>
<!--=========================================================-->
		<measure number='4'>
			<note>
				<pitch>
					<step>F</step>
					<alter>1</alter>
					<octave>4</octave>
				</pitch>
				<duration>2304</duration>
				<voice>1</voice>
				<type>half</type>
				<dot/>
				<accidental>sharp</accidental>
				<stem>up</stem>
				<staff>1</staff>
			</note>
			<backup>
				<duration>2304</duration>
			</backup>
			<note>
				<rest measure='yes'/>
				<duration>2304</duration>
				<voice>5</voice>
				<staff>2</staff>
			</note>
		</measure>
<!--=========================================================-->
		<measure number='5'>
			<print new-system='yes'/>
			<note>
				<pitch>
					<step>C</step>
					<alter>1</alter>
					<octave>4</octave>
				</pitch>
				<duration>2304</duration>
				<voice>1</voice>
				<type>half</type>
				<dot/>
				<accidental>sharp</accidental>
				<stem>up</stem>
				<staff>1</staff>
			</note>
			<backup>
				<duration>2304</duration>
			</backup>
			<note>
				<rest measure='yes'/>
				<duration>2304</duration>
				<voice>5</voice>
				<staff>2</staff>
			</note>
		</measure>
<!--=========================================================-->
		<measure number='6'>
			<note>
				<pitch>
					<step>D</step>
					<octave>4</octave>
				</pitch>
				<duration>2304</duration>
				<voice>1</voice>
				<type>half</type>
				<dot/>
				<stem>up</stem>
				<staff>1</staff>
			</note>
			<backup>
				<duration>2304</duration>
			</backup>
			<note>
				<rest measure='yes'/>
				<duration>2304</duration>
				<voice>5</voice>
				<staff>2</staff>
			</note>
		</measure>
<!--=========================================================-->
		<measure number='7'>
			<note>
				<pitch>
					<step>D</step>
					<alter>1</alter>
					<octave>4</octave>
				</pitch>
				<duration>2304</duration>
				<voice>1</voice>
				<type>half</type>
				<dot/>
				<accidental>sharp</accidental>
				<stem>up</stem>
				<staff>1</staff>
			</note>
			<backup>
				<duration>2304</duration>
			</backup>
			<note>
				<rest measure='yes'/>
				<duration>2304</duration>
				<voice>5</voice>
				<staff>2</staff>
			</note>
		</measure>
<!--=========================================================-->
		<measure number='8'>
			<note>
				<pitch>
					<step>E</step>
					<octave>4</octave>
				</pitch>
				<duration>384</duration>
				<voice>1</voice>
				<type>eighth</type>
				<stem>up</stem>
				<staff>1</staff>
			</note>
			<note>
				<rest/>
				<duration>384</duration>
				<voice>1</voice>
				<type>eighth</type>
				<staff>1</staff>
			</note>
			<note>
				<rest/>
				<duration>384</duration>
				<voice>1</voice>
				<type>eighth</type>
				<staff>1</staff>
			</note>
			<note>
				<rest/>
				<duration>1152</duration>
				<voice>1</voice>
				<type>quarter</type>
				<dot/>
				<staff>1</staff>
			</note>
			<backup>
				<duration>2304</duration>
			</backup>
			<note>
				<rest measure='yes'/>
				<duration>2304</duration>
				<voice>5</voice>
				<staff>2</staff>
			</note>
		</measure>
<!--=========================================================-->
		<measure number='9'>
			<print new-system='yes'/>
			<note>
				<rest measure='yes'/>
				<duration>2304</duration>
				<voice>1</voice>
				<staff>1</staff>
			</note>
			<backup>
				<duration>2304</duration>
			</backup>
			<note>
				<rest measure='yes'/>
				<duration>2304</duration>
				<voice>5</voice>
				<staff>2</staff>
			</note>
		</measure>
<!--=========================================================-->
		<measure number='10'>
			<note>
				<pitch>
					<step>G</step>
					<octave>4</octave>
				</pitch>
				<duration>768</duration>
				<voice>1</voice>
				<type>quarter</type>
				<stem>up</stem>
				<staff>1</staff>
			</note>
			<note>
				<pitch>
					<step>G</step>
					<octave>4</octave>
				</pitch>
				<duration>768</duration>
				<voice>1</voice>
				<type>quarter</type>
				<stem>up</stem>
				<staff>1</staff>
			</note>
			<note>
				<pitch>
					<step>A</step>
					<octave>4</octave>
				</pitch>
				<duration>768</duration>
				<voice>1</voice>
				<type>quarter</type>
				<stem>up</stem>
				<staff>1</staff>
			</note>
			<backup>
				<duration>2304</duration>
			</backup>
			<note>
				<rest measure='yes'/>
				<duration>2304</duration>
				<voice>5</voice>
				<staff>2</staff>
			</note>
		</measure>
<!--=========================================================-->
		<measure number='11'>
			<note>
				<pitch>
					<step>G</step>
					<octave>4</octave>
				</pitch>
				<duration>768</duration>
				<voice>1</voice>
				<type>quarter</type>
				<stem>up</stem>
				<staff>1</staff>
			</note>
			<note>
				<rest/>
				<duration>768</duration>
				<voice>1</voice>
				<type>quarter</type>
				<staff>1</staff>
			</note>
			<note>
				<rest/>
				<duration>768</duration>
				<voice>1</voice>
				<type>quarter</type>
				<staff>1</staff>
			</note>
			<backup>
				<duration>2304</duration>
			</backup>
			<note>
				<rest measure='yes'/>
				<duration>2304</duration>
				<voice>5</voice>
				<staff>2</staff>
			</note>
		</measure>
<!--=========================================================-->
		<measure number='12'>
			<note>
				<pitch>
					<step>F</step>
					<alter>1</alter>
					<octave>4</octave>
				</pitch>
				<duration>768</duration>
				<voice>1</voice>
				<type>quarter</type>
				<accidental>sharp</accidental>
				<stem>up</stem>
				<staff>1</staff>
			</note>
			<note>
				<pitch>
					<step>F</step>
					<alter>1</alter>
					<octave>4</octave>
				</pitch>
				<duration>768</duration>
				<voice>1</voice>
				<type>quarter</type>
				<stem>up</stem>
				<staff>1</staff>
			</note>
			<note>
				<pitch>
					<step>G</step>
					<octave>4</octave>
				</pitch>
				<duration>768</duration>
				<voice>1</voice>
				<type>quarter</type>
				<stem>up</stem>
				<staff>1</staff>
			</note>
			<backup>
				<duration>2304</duration>
			</backup>
			<note>
				<rest measure='yes'/>
				<duration>2304</duration>
				<voice>5</voice>
				<staff>2</staff>
			</note>
		</measure>
<!--=========================================================-->
		<measure number='13'>
			<print new-system='yes'/>
			<note>
				<pitch>
					<step>F</step>
					<alter>1</alter>
					<octave>4</octave>
				</pitch>
				<duration>768</duration>
				<voice>1</voice>
				<type>quarter</type>
				<accidental>sharp</accidental>
				<stem>up</stem>
				<staff>1</staff>
			</note>
			<note>
				<rest/>
				<duration>768</duration>
				<voice>1</voice>
				<type>quarter</type>
				<staff>1</staff>
			</note>
			<note>
				<rest/>
				<duration>768</duration>
				<voice>1</voice>
				<type>quarter</type>
				<staff>1</staff>
			</note>
			<backup>
				<duration>2304</duration>
			</backup>
			<note>
				<rest measure='yes'/>
				<duration>2304</duration>
				<voice>5</voice>
				<staff>2</staff>
			</note>
		</measure>
<!--=========================================================-->
		<measure number='14'>
			<note>
				<rest measure='yes'/>
				<duration>2304</duration>
				<voice>1</voice>
				<staff>1</staff>
			</note>
			<backup>
				<duration>2304</duration>
			</backup>
			<note>
				<pitch>
					<step>A</step>
					<octave>3</octave>
				</pitch>
				<duration>2304</duration>
				<voice>5</voice>
				<type>half</type>
				<dot/>
				<stem>down</stem>
				<staff>2</staff>
			</note>
		</measure>
<!--=========================================================-->
		<measure number='15'>
			<note>
				<rest measure='yes'/>
				<duration>2304</duration>
				<voice>1</voice>
				<staff>1</staff>
			</note>
			<backup>
				<duration>2304</duration>
			</backup>
			<note>
				<pitch>
					<step>A</step>
					<octave>3</octave>
				</pitch>
				<duration>2304</duration>
				<voice>5</voice>
				<type>half</type>
				<dot/>
				<stem>down</stem>
				<staff>2</staff>
			</note>
		</measure>
<!--=========================================================-->
		<measure number='16'>
			<note>
				<rest measure='yes'/>
				<duration>2304</duration>
				<voice>1</voice>
				<staff>1</staff>
			</note>
			<backup>
				<duration>2304</duration>
			</backup>
			<note>
				<pitch>
					<step>A</step>
					<octave>3</octave>
				</pitch>
				<duration>2304</duration>
				<voice>5</voice>
				<type>half</type>
				<dot/>
				<stem>down</stem>
				<staff>2</staff>
			</note>
		</measure>
<!--=========================================================-->
		<measure number='17'>
			<print new-system='yes'/>
			<note>
				<rest measure='yes'/>
				<duration>2304</duration>
				<voice>1</voice>
				<staff>1</staff>
			</note>
			<backup>
				<duration>2304</duration>
			</backup>
			<note>
				<pitch>
					<step>A</step>
					<octave>3</octave>
				</pitch>
				<duration>2304</duration>
				<voice>5</voice>
				<type>half</type>
				<dot/>
				<stem>down</stem>
				<staff>2</staff>
			</note>
		</measure>
<!--=========================================================-->
		<measure number='18'>
			<note>
				<rest measure='yes'/>
				<duration>2304</duration>
				<voice>1</voice>
				<staff>1</staff>
			</note>
			<backup>
				<duration>2304</duration>
			</backup>
			<note>
				<pitch>
					<step>A</step>
					<octave>3</octave>
				</pitch>
				<duration>2304</duration>
				<voice>5</voice>
				<type>half</type>
				<dot/>
				<stem>down</stem>
				<staff>2</staff>
			</note>
		</measure>
<!--=========================================================-->
		<measure number='19'>
			<note>
				<rest measure='yes'/>
				<duration>2304</duration>
				<voice>1</voice>
				<staff>1</staff>
			</note>
			<backup>
				<duration>2304</duration>
			</backup>
			<note>
				<pitch>
					<step>A</step>
					<octave>3</octave>
				</pitch>
				<duration>2304</duration>
				<voice>5</voice>
				<type>half</type>
				<dot/>
				<stem>down</stem>
				<staff>2</staff>
			</note>
		</measure>
<!--=========================================================-->
		<measure number='20'>
			<note>
				<rest measure='yes'/>
				<duration>2304</duration>
				<voice>1</voice>
				<staff>1</staff>
			</note>
			<backup>
				<duration>2304</duration>
			</backup>
			<note>
				<pitch>
					<step>A</step>
					<octave>3</octave>
				</pitch>
				<duration>1152</duration>
				<voice>5</voice>
				<type>quarter</type>
				<dot/>
				<stem>down</stem>
				<staff>2</staff>
			</note>
			<note>
				<rest/>
				<duration>1152</duration>
				<voice>5</voice>
				<type>quarter</type>
				<dot/>
				<staff>2</staff>
			</note>
		</measure>
<!--=========================================================-->
		<measure number='21'>
			<print new-page='yes'/>
			<note>
				<rest measure='yes'/>
				<duration>2304</duration>
				<voice>1</voice>
				<staff>1</staff>
			</note>
			<backup>
				<duration>2304</duration>
			</backup>
			<note>
				<pitch>
					<step>G</step>
					<octave>3</octave>
				</pitch>
				<duration>1152</duration>
				<voice>5</voice>
				<type>quarter</type>
				<dot/>
				<stem>down</stem>
				<staff>2</staff>
			</note>
			<note>
				<rest/>
				<duration>1152</duration>
				<voice>5</voice>
				<type>quarter</type>
				<dot/>
				<staff>2</staff>
			</note>
		</measure>
<!--=========================================================-->
		<measure number='22'>
			<note>
				<rest measure='yes'/>
				<duration>2304</duration>
				<voice>1</voice>
				<staff>1</staff>
			</note>
			<backup>
				<duration>2304</duration>
			</backup>
			<note>
				<pitch>
					<step>E</step>
					<octave>3</octave>
				</pitch>
				<duration>1152</duration>
				<voice>5</voice>
				<type>quarter</type>
				<dot/>
				<stem>down</stem>
				<staff>2</staff>
			</note>
			<note>
				<rest/>
				<duration>1152</duration>
				<voice>5</voice>
				<type>quarter</type>
				<dot/>
				<staff>2</staff>
			</note>
			<barline location='right'>
				<bar-style>light-light</bar-style>
			</barline>
		</measure>
	</part>
<!--=========================================================-->
</score-partwise>
